<svg width="104" height="96" viewBox="0 0 104 96" fill="none" xmlns="http://www.w3.org/2000/svg">
<g clip-path="url(#clip0_39_29617)">
<path d="M-13.01 94.99C-11.7706 85.3044 -8.85723 75.9079 -4.40001 67.22C-1.09002 60.73 4.6 52.13 13.12 54.22C15.1001 54.7527 16.936 55.7216 18.4933 57.0556C20.0505 58.3897 21.2897 60.0551 22.12 61.93C24.02 66.04 24.05 70.44 23.44 74.84C22.96 78.29 22.21 82.5 24.34 85.57C26.47 88.64 30.15 89.08 33.34 87.84C42.88 84.2 40.27 71 47.69 65.38C48.28 64.93 47.69 63.91 47.1 64.38C43.79 66.84 42.21 70.64 40.94 74.44C39.6 78.44 38.32 83.32 34.5 85.7C30.92 87.92 26.16 87.13 25.25 82.55C24.46 78.6 26.18 74.48 26.37 70.55C26.78 62 22.03 52.78 12.94 51.23C4.30998 49.77 -2.06001 56.67 -5.83001 63.58C-10.9883 73.329 -14.1244 84.0194 -15.05 95.01C-15.17 96.29 -13.21 96.26 -13.05 95.01L-13.01 94.99Z" fill="#514F43"/>
<path d="M39.28 63.25C44.33 59.84 49.28 56.35 54.28 52.86L52.82 52.26C53.73 57.55 54.61 62.83 55.5 68.12L57.1 66.88C52.78 64.88 48.4467 62.88 44.1 60.88L44.35 62.78L51.6 56.34L49.6 55.81C50.19 58.66 50.8 61.5 51.39 64.35L52.83 62.9L46.64 61.07L46 63.38L49.11 64.08C49.2842 64.1254 49.4665 64.1307 49.643 64.0955C49.8196 64.0603 49.9858 63.9855 50.1293 63.8767C50.2727 63.7679 50.3896 63.628 50.4711 63.4674C50.5527 63.3069 50.5967 63.13 50.6 62.95V56.36L48.48 56.94L51.27 62.82C51.4 63.0067 51.5846 63.1485 51.7985 63.2259C52.0125 63.3033 52.2451 63.3125 52.4645 63.2522C52.6838 63.1919 52.8791 63.065 53.0233 62.8891C53.1676 62.7132 53.2538 62.4969 53.27 62.27C53.27 60.07 53.2433 57.8733 53.19 55.68H51.09C51.35 57.94 51.59 60.2 51.83 62.46C51.97 63.73 53.92 63.8 53.83 62.46C53.76 60.36 53.71 58.26 53.65 56.16C53.65 55.8948 53.5446 55.6404 53.3571 55.4529C53.1696 55.2654 52.9152 55.16 52.65 55.16C52.3848 55.16 52.1304 55.2654 51.9429 55.4529C51.7553 55.6404 51.65 55.8948 51.65 56.16C51.44 58.35 51.24 60.54 51.03 62.72L52.58 61.83C50.98 60.83 49.38 59.83 47.8 58.83C47.6107 58.7236 47.3944 58.675 47.1778 58.6904C46.9612 58.7057 46.7538 58.7842 46.5814 58.9162C46.4089 59.0482 46.279 59.2278 46.2077 59.4329C46.1363 59.638 46.1267 59.8595 46.18 60.07C46.73 61.81 47.39 63.51 48 65.22C48.47 66.5 50.51 65.97 50.07 64.65C49.49 62.93 48.95 61.19 48.3 59.49L46.69 60.73C48.32 61.73 49.93 62.67 51.54 63.66C51.6947 63.7623 51.8747 63.8195 52.0601 63.8254C52.2454 63.8312 52.4287 63.7854 52.5895 63.6931C52.7503 63.6008 52.8823 63.4655 52.9707 63.3025C53.059 63.1395 53.1004 62.9551 53.09 62.77L53.69 56.21H51.69C51.75 58.31 51.82 60.41 51.87 62.51H53.87C53.6367 60.25 53.41 57.99 53.19 55.73C53.19 55.4515 53.0794 55.1845 52.8825 54.9875C52.6855 54.7906 52.4185 54.68 52.14 54.68C51.8615 54.68 51.5944 54.7906 51.3975 54.9875C51.2006 55.1845 51.09 55.4515 51.09 55.73C51.09 57.92 51.09 60.12 51.09 62.32L53.09 61.77L50.38 55.84C49.88 54.76 48.28 55.36 48.26 56.41L48.14 63L49.63 61.86L46.54 61.12C46.2395 61.0527 45.9247 61.1034 45.6606 61.2617C45.3965 61.4201 45.2034 61.6738 45.1212 61.9706C45.039 62.2673 45.074 62.5843 45.2189 62.8559C45.3639 63.1276 45.6077 63.3331 45.9 63.43L52.11 65.22C52.3099 65.2697 52.5192 65.2667 52.7175 65.2113C52.9159 65.1558 53.0964 65.0499 53.2416 64.9037C53.3867 64.7576 53.4914 64.5763 53.5455 64.3776C53.5995 64.1789 53.6011 63.9695 53.55 63.77C52.95 60.93 52.38 58.08 51.79 55.23C51.7338 55.0287 51.6259 54.8455 51.4771 54.6987C51.3283 54.5518 51.1437 54.4464 50.9416 54.3928C50.7395 54.3393 50.527 54.3395 50.325 54.3933C50.123 54.4472 49.9386 54.5529 49.79 54.7C47.37 56.84 44.93 58.97 42.52 61.12C42.3908 61.2514 42.2931 61.4104 42.2341 61.585C42.1752 61.7596 42.1565 61.9453 42.1796 62.1282C42.2027 62.311 42.267 62.4862 42.3675 62.6407C42.468 62.7952 42.6022 62.9248 42.76 63.02C47.1333 64.98 51.5067 66.92 55.88 68.84C56.0694 68.9387 56.2831 68.9812 56.4959 68.9624C56.7087 68.9436 56.9117 68.8644 57.0809 68.7341C57.2501 68.6037 57.3786 68.4277 57.4511 68.2268C57.5235 68.0258 57.5371 67.8084 57.49 67.6C56.49 62.34 55.56 57.07 54.62 51.8C54.578 51.6542 54.5034 51.5198 54.4018 51.4071C54.3003 51.2944 54.1744 51.2063 54.0337 51.1494C53.893 51.0926 53.7412 51.0685 53.5899 51.079C53.4385 51.0895 53.2915 51.1343 53.16 51.21C48.16 54.75 43.25 58.3 38.35 61.93C37.54 62.53 38.29 63.93 39.16 63.32L39.28 63.25Z" fill="#514F43"/>
</g>
<g clip-path="url(#clip1_39_29617)">
<path d="M48.98 26.16C53.58 29.56 58.11 33.04 62.78 36.36C67.45 39.68 72.1 42.97 76.78 46.24C77.1283 46.4332 77.5377 46.4849 77.9231 46.3843C78.3085 46.2838 78.6405 46.0387 78.85 45.7C85.79 36.41 100.27 33.09 102.99 20.59C105.59 8.58999 93.09 -2.41001 81.5 0.449993C78.5475 1.17606 75.9063 2.83126 73.9655 5.17172C72.0247 7.51218 70.887 10.4141 70.72 13.45H73.62C72.62 5.10999 62.76 0.97 55.24 1.77C51.2147 2.10616 47.4863 4.02251 44.87 7.1C42.56 9.91 41.31 13.63 42.42 17.22C43.53 20.81 46.1 24.22 49.99 25.16C50.1422 25.1877 50.2993 25.1574 50.4304 25.0752C50.5614 24.993 50.657 24.8648 50.6984 24.7157C50.7397 24.5666 50.7238 24.4074 50.6538 24.2695C50.5838 24.1315 50.4648 24.0247 50.32 23.97C48.4131 23.4488 46.7488 22.2763 45.6162 20.656C44.4837 19.0357 43.9543 17.0699 44.12 15.1C44.33 13.207 44.9944 11.3928 46.0564 9.8119C47.1185 8.23095 48.5469 6.93006 50.22 6.02C54.22 3.83 59.07 4.07001 63.22 5.62001C66.59 6.89001 70.28 9.61999 70.74 13.45C70.74 13.8346 70.8928 14.2034 71.1647 14.4753C71.4366 14.7472 71.8055 14.9 72.19 14.9C72.5746 14.9 72.9434 14.7472 73.2153 14.4753C73.4872 14.2034 73.64 13.8346 73.64 13.45C73.8014 11.1199 74.6859 8.89834 76.1702 7.09498C77.6544 5.29163 79.6645 3.99642 81.92 3.39C86.92 2.02 92.46 3.94 96.06 7.55C97.882 9.27047 99.1879 11.4651 99.8309 13.887C100.474 16.309 100.429 18.8624 99.7 21.26C98.07 26.11 93.85 29.76 89.83 32.66C84.99 36.16 79.89 39.32 76.26 44.18L78.33 43.63C73.6633 40.37 68.97 37.1233 64.25 33.89C59.55 30.67 54.75 27.62 49.99 24.48C48.93 23.79 47.99 25.43 48.99 26.16H48.98Z" fill="#E20F87"/>
<path d="M74.25 33.21C75.9 33.52 76.93 35.35 77.52 36.76C77.8773 37.5929 78.1001 38.4772 78.18 39.38C78.1853 40.1334 78.1048 40.8849 77.94 41.62C77.9206 41.7056 77.9291 41.7951 77.9644 41.8754C77.9997 41.9557 78.0598 42.0227 78.1359 42.0663C78.212 42.11 78.3001 42.128 78.3872 42.1179C78.4743 42.1078 78.5559 42.0699 78.62 42.01C78.925 41.6717 79.1463 41.2666 79.2661 40.8271C79.386 40.3877 79.401 39.9263 79.31 39.48C79.2168 38.3955 78.943 37.3342 78.5 36.34C77.78 34.7 76.39 32.68 74.5 32.41C73.98 32.34 73.74 33.11 74.28 33.21H74.25Z" fill="#E20F87"/>
<path d="M81.31 31.25C81.49 32.81 81.69 34.36 81.79 35.93C81.8383 37.5008 81.8015 39.0731 81.68 40.64C81.6763 40.7345 81.7081 40.827 81.769 40.8994C81.8299 40.9717 81.9157 41.0188 82.0095 41.0313C82.1032 41.0438 82.1983 41.0209 82.2761 40.967C82.3538 40.9131 82.4087 40.8322 82.43 40.74C82.7714 39.1588 82.8189 37.5283 82.57 35.93C82.4 34.33 82.11 32.76 81.85 31.17C81.8 30.87 81.28 30.94 81.31 31.25Z" fill="#E20F87"/>
<path d="M85.5601 30.55C85.6701 31.55 85.8601 32.61 85.8801 33.64C85.8957 34.1114 85.8452 34.5826 85.7301 35.04C85.6001 35.56 85.4001 36.04 85.2301 36.57C85.2017 36.6683 85.2069 36.7733 85.2449 36.8683C85.283 36.9634 85.3516 37.043 85.44 37.0946C85.5283 37.1463 85.6314 37.167 85.7328 37.1535C85.8343 37.1399 85.9283 37.093 86.0001 37.02C86.3985 36.5911 86.6952 36.0781 86.8683 35.519C87.0414 34.9598 87.0865 34.3689 87.0001 33.79C86.8885 32.6607 86.7116 31.5388 86.4701 30.43C86.3801 29.9 85.4701 30.02 85.5301 30.55H85.5601Z" fill="#E20F87"/>
<path d="M88.12 29.2C88.2267 30.1161 88.2434 31.0406 88.17 31.96C88.0368 32.884 88.0133 33.8205 88.1 34.75C88.1299 34.8514 88.1918 34.9405 88.2765 35.0038C88.3612 35.0672 88.4642 35.1014 88.57 35.1014C88.6758 35.1014 88.7787 35.0672 88.8634 35.0038C88.9481 34.9405 89.0101 34.8514 89.04 34.75C89.1317 34.2518 89.1785 33.7465 89.18 33.24C89.18 32.77 89.18 32.31 89.18 31.85C89.2133 30.879 89.1463 29.9072 88.98 28.95C88.9638 28.8914 88.9362 28.8366 88.8988 28.7887C88.8613 28.7408 88.8147 28.7009 88.7617 28.6711C88.7087 28.6414 88.6503 28.6224 88.5899 28.6154C88.5296 28.6083 88.4684 28.6133 88.41 28.63C88.2913 28.6628 88.1901 28.7409 88.1284 28.8475C88.0667 28.9541 88.0493 29.0807 88.08 29.2H88.12Z" fill="#E20F87"/>
<path d="M91.2701 28.48C91.2701 29.19 91.1901 29.9 91.1901 30.61C91.1901 30.96 91.1901 31.31 91.2501 31.66C91.2801 32.0668 91.3782 32.4656 91.5401 32.84C91.6007 32.9245 91.6832 32.9909 91.7788 33.0319C91.8744 33.0728 91.9794 33.0869 92.0824 33.0725C92.1854 33.058 92.2825 33.0157 92.3632 32.9501C92.4439 32.8844 92.505 32.7979 92.5401 32.7C92.5909 32.5368 92.6277 32.3695 92.6501 32.2C92.6666 32.1163 92.6566 32.0295 92.6215 31.9517C92.5864 31.8739 92.5279 31.809 92.4541 31.7661C92.3803 31.7232 92.295 31.7043 92.2101 31.7122C92.1251 31.7201 92.0447 31.7542 91.98 31.81C91.797 31.9333 91.6349 32.0852 91.5001 32.26L92.5001 32.4C92.4201 32.07 92.2801 31.76 92.2101 31.4C92.1488 31.0968 92.112 30.7891 92.1001 30.48C92.1001 29.81 92.1 29.13 92.05 28.48C92.05 28.3659 92.0047 28.2566 91.9241 28.1759C91.8435 28.0953 91.7341 28.05 91.6201 28.05C91.506 28.05 91.3967 28.0953 91.316 28.1759C91.2354 28.2566 91.1901 28.3659 91.1901 28.48H91.2701Z" fill="#E20F87"/>
<path d="M94.16 26.55C94.1352 27.3201 94.065 28.0881 93.95 28.85C93.8222 29.6369 93.7587 30.4328 93.76 31.23C93.76 31.71 94.44 32.09 94.76 31.66C94.9881 31.3664 95.1455 31.0242 95.22 30.66C95.31 30.27 94.8 29.9 94.5 30.24C94.2 30.58 94.1 30.63 93.91 30.83L94.91 31.25C94.86 30.4741 94.86 29.6958 94.91 28.92C94.91 28.13 95.02 27.35 95.01 26.57C94.9942 26.466 94.9416 26.371 94.8618 26.3024C94.782 26.2339 94.6802 26.1961 94.575 26.1961C94.4698 26.1961 94.368 26.2339 94.2882 26.3024C94.2084 26.371 94.1558 26.466 94.14 26.57L94.16 26.55Z" fill="#E20F87"/>
</g>
<defs>
<clipPath id="clip0_39_29617">
<rect width="72.63" height="44.94" fill="white" transform="translate(-15 51)"/>
</clipPath>
<clipPath id="clip1_39_29617">
<rect width="61.33" height="46.46" fill="white" transform="translate(42)"/>
</clipPath>
</defs>
</svg>
