<svg width="21" height="21" viewBox="0 0 21 21" fill="none" xmlns="http://www.w3.org/2000/svg">
<path d="M18.5104 8.38448V10.8998C18.5104 14.2536 16.8335 15.9305 13.4797 15.9305H13.0605C12.8006 15.9305 12.5491 16.0563 12.3898 16.2659L11.1321 17.9428C10.5787 18.6806 9.67319 18.6806 9.11981 17.9428L7.86214 16.2659C7.72798 16.0814 7.41776 15.9305 7.19138 15.9305H6.77215C3.41835 15.9305 1.74146 15.0921 1.74146 10.8998V6.70758C1.74146 3.35378 3.41835 1.67688 6.77215 1.67688H11.8028" stroke="#292D32" stroke-width="1.25767" stroke-miterlimit="10" stroke-linecap="round" stroke-linejoin="round"/>
<path d="M16.4142 5.86913C17.5719 5.86913 18.5104 4.93066 18.5104 3.773C18.5104 2.61535 17.5719 1.67688 16.4142 1.67688C15.2566 1.67688 14.3181 2.61535 14.3181 3.773C14.3181 4.93066 15.2566 5.86913 16.4142 5.86913Z" stroke="#292D32" stroke-width="1.25767" stroke-linecap="round" stroke-linejoin="round"/>
<path d="M13.4766 9.22294H13.4842" stroke="#292D32" stroke-width="1.6769" stroke-linecap="round" stroke-linejoin="round"/>
<path d="M10.1221 9.22294H10.1297" stroke="#292D32" stroke-width="1.6769" stroke-linecap="round" stroke-linejoin="round"/>
<path d="M6.7674 9.22294H6.77493" stroke="#292D32" stroke-width="1.6769" stroke-linecap="round" stroke-linejoin="round"/>
</svg>
