<svg width="17" height="17" viewBox="0 0 17 17" fill="none" xmlns="http://www.w3.org/2000/svg">
<path d="M15.1746 5.57684V8.86933C15.1746 11.5033 13.8576 12.8203 11.2236 12.8203H10.8943C10.6902 12.8203 10.4927 12.9191 10.3675 13.0837L9.3798 14.4007C8.9452 14.9802 8.23402 14.9802 7.79941 14.4007L6.81167 13.0837C6.70631 12.9388 6.46266 12.8203 6.28487 12.8203H5.95562C3.32163 12.8203 2.00464 12.1618 2.00464 8.86933V5.57684C2.00464 2.94286 3.32163 1.62586 5.95562 1.62586H8.58961" stroke="#292D32" stroke-width="0.987745" stroke-miterlimit="10" stroke-linecap="round" stroke-linejoin="round"/>
<path d="M10.6968 3.35112C10.4795 2.69921 10.7363 1.89584 11.4475 1.67196C11.8162 1.56001 12.2772 1.6522 12.5406 2.0012C12.7908 1.63903 13.2649 1.56001 13.6337 1.67196C14.3448 1.88926 14.6016 2.69921 14.3843 3.35112C14.0485 4.38496 12.8698 4.91835 12.5406 4.91835C12.2113 4.91835 11.0458 4.39155 10.6968 3.35112Z" stroke="#292D32" stroke-width="0.987745" stroke-linecap="round" stroke-linejoin="round"/>
</svg>
