<svg width="27" height="20" viewBox="0 0 27 20" fill="none" xmlns="http://www.w3.org/2000/svg">
<g clip-path="url(#clip0_40_29458)">
<mask id="path-1-inside-1_40_29458" fill="white">
<path d="M3.42295 11.2609C5.40314 12.7245 7.35322 14.2226 9.36355 15.6518C11.3739 17.081 13.3756 18.4972 15.3902 19.9049C15.5402 19.9881 15.7164 20.0103 15.8823 19.967C16.0482 19.9238 16.1911 19.8183 16.2813 19.6724C19.2688 15.6733 25.5022 14.2441 26.6731 8.86314C27.7923 3.69741 22.4113 -1.03785 17.4221 0.193317C16.1511 0.505871 15.0141 1.2184 14.1787 2.22592C13.3432 3.23343 12.8534 4.48266 12.7815 5.78953H14.0299C13.5994 2.19934 9.35493 0.417169 6.11774 0.761551C4.38494 0.906262 2.77994 1.73121 1.65369 3.056C0.659285 4.26564 0.121183 5.86702 0.599013 7.41243C1.07684 8.95785 2.18317 10.4258 3.85773 10.8304C3.92326 10.8423 3.99088 10.8293 4.0473 10.7939C4.10372 10.7585 4.14487 10.7033 4.16267 10.6392C4.18047 10.575 4.17363 10.5065 4.14349 10.4471C4.11335 10.3877 4.0621 10.3417 3.9998 10.3182C3.17889 10.0938 2.46247 9.58907 1.97492 8.89156C1.48737 8.19406 1.25948 7.34784 1.33083 6.49982C1.42123 5.68494 1.70721 4.90397 2.16442 4.22341C2.62163 3.54285 3.23652 2.98284 3.95675 2.59108C5.67866 1.64834 7.76648 1.75165 9.55296 2.41889C11.0037 2.9656 12.5921 4.1408 12.7901 5.78953C12.7901 5.95508 12.8559 6.11385 12.973 6.2309C13.09 6.34796 13.2488 6.41373 13.4143 6.41373C13.5799 6.41373 13.7387 6.34796 13.8557 6.2309C13.9728 6.11385 14.0385 5.95508 14.0385 5.78953C14.108 4.7865 14.4888 3.83014 15.1277 3.05384C15.7667 2.27753 16.6319 1.71998 17.6029 1.45892C19.7553 0.869169 22.1401 1.69569 23.6898 3.24971C24.4742 3.99034 25.0363 4.93506 25.3131 5.97767C25.5899 7.02028 25.5704 8.11944 25.2568 9.15157C24.5551 11.2394 22.7385 12.8106 21.008 14.059C18.9245 15.5657 16.729 16.926 15.1664 19.0181L16.0575 18.7813C14.0486 17.378 12.0282 15.9804 9.99635 14.5885C7.9731 13.2024 5.90681 11.8894 3.85773 10.5377C3.40143 10.2407 2.99678 10.9467 3.42726 11.2609H3.42295Z"/>
</mask>
<path d="M3.42295 11.2609C5.40314 12.7245 7.35322 14.2226 9.36355 15.6518C11.3739 17.081 13.3756 18.4972 15.3902 19.9049C15.5402 19.9881 15.7164 20.0103 15.8823 19.967C16.0482 19.9238 16.1911 19.8183 16.2813 19.6724C19.2688 15.6733 25.5022 14.2441 26.6731 8.86314C27.7923 3.69741 22.4113 -1.03785 17.4221 0.193317C16.1511 0.505871 15.0141 1.2184 14.1787 2.22592C13.3432 3.23343 12.8534 4.48266 12.7815 5.78953H14.0299C13.5994 2.19934 9.35493 0.417169 6.11774 0.761551C4.38494 0.906262 2.77994 1.73121 1.65369 3.056C0.659285 4.26564 0.121183 5.86702 0.599013 7.41243C1.07684 8.95785 2.18317 10.4258 3.85773 10.8304C3.92326 10.8423 3.99088 10.8293 4.0473 10.7939C4.10372 10.7585 4.14487 10.7033 4.16267 10.6392C4.18047 10.575 4.17363 10.5065 4.14349 10.4471C4.11335 10.3877 4.0621 10.3417 3.9998 10.3182C3.17889 10.0938 2.46247 9.58907 1.97492 8.89156C1.48737 8.19406 1.25948 7.34784 1.33083 6.49982C1.42123 5.68494 1.70721 4.90397 2.16442 4.22341C2.62163 3.54285 3.23652 2.98284 3.95675 2.59108C5.67866 1.64834 7.76648 1.75165 9.55296 2.41889C11.0037 2.9656 12.5921 4.1408 12.7901 5.78953C12.7901 5.95508 12.8559 6.11385 12.973 6.2309C13.09 6.34796 13.2488 6.41373 13.4143 6.41373C13.5799 6.41373 13.7387 6.34796 13.8557 6.2309C13.9728 6.11385 14.0385 5.95508 14.0385 5.78953C14.108 4.7865 14.4888 3.83014 15.1277 3.05384C15.7667 2.27753 16.6319 1.71998 17.6029 1.45892C19.7553 0.869169 22.1401 1.69569 23.6898 3.24971C24.4742 3.99034 25.0363 4.93506 25.3131 5.97767C25.5899 7.02028 25.5704 8.11944 25.2568 9.15157C24.5551 11.2394 22.7385 12.8106 21.008 14.059C18.9245 15.5657 16.729 16.926 15.1664 19.0181L16.0575 18.7813C14.0486 17.378 12.0282 15.9804 9.99635 14.5885C7.9731 13.2024 5.90681 11.8894 3.85773 10.5377C3.40143 10.2407 2.99678 10.9467 3.42726 11.2609H3.42295Z" fill="#E20F87"/>
<path d="M3.42295 11.2609V-25.6823H-108.712L-18.5358 40.9698L3.42295 11.2609ZM15.3902 19.9049L-5.76925 50.1882L-4.20167 51.2835L-2.52937 52.2111L15.3902 19.9049ZM16.2813 19.6724L-13.3153 -2.43738L-14.2843 -1.1402L-15.1361 0.236797L16.2813 19.6724ZM26.6731 8.86314L62.7715 16.7182L62.775 16.7021L62.7785 16.686L26.6731 8.86314ZM17.4221 0.193317L26.2441 36.0677L26.2585 36.0642L26.2729 36.0607L17.4221 0.193317ZM12.7815 5.78953L-24.1059 3.76022L-26.2499 42.7328H12.7815V5.78953ZM14.0299 5.78953V42.7328H55.6674L50.7104 1.39139L14.0299 5.78953ZM6.11774 0.761551L9.19227 37.5766L9.60949 37.5418L10.0258 37.4975L6.11774 0.761551ZM1.65369 3.056L-26.4929 -20.8725L-26.6906 -20.6399L-26.8844 -20.4042L1.65369 3.056ZM3.85773 10.8304L-4.81967 46.7401L-3.79175 46.9885L-2.7513 47.1777L3.85773 10.8304ZM3.9998 10.3182L17.0541 -24.2418L15.4218 -24.8583L13.7387 -25.3183L3.9998 10.3182ZM1.33083 6.49982L-35.3871 2.42632L-35.4412 2.91384L-35.4823 3.40263L1.33083 6.49982ZM3.95675 2.59108L21.6093 35.044L21.6537 35.0198L21.6982 34.9955L3.95675 2.59108ZM9.55296 2.41889L22.5808 -32.151L22.5299 -32.1702L22.4789 -32.1892L9.55296 2.41889ZM12.7901 5.78953L49.7334 5.78952V3.57895L49.4698 1.38414L12.7901 5.78953ZM13.4143 6.41373V-30.5295V6.41373ZM14.0385 5.78953L-22.8164 3.23706L-22.9047 4.51176V5.78952L14.0385 5.78953ZM17.6029 1.45892L27.1949 37.1352L27.2803 37.1122L27.3655 37.0889L17.6029 1.45892ZM23.6898 3.24971L-2.46917 29.3363L-2.07749 29.729L-1.6742 30.1099L23.6898 3.24971ZM25.2568 9.15157L60.2752 20.9206L60.4471 20.4092L60.604 19.8929L25.2568 9.15157ZM21.008 14.059L-0.605617 -15.9019L-0.62282 -15.8895L-0.640008 -15.877L21.008 14.059ZM15.1664 19.0181L-14.432 -3.08931L-77.9818 81.9939L24.6535 54.7224L15.1664 19.0181ZM16.0575 18.7813L25.5445 54.4857L102.432 34.0556L37.214 -11.504L16.0575 18.7813ZM9.99635 14.5885L-10.8835 45.0653L-10.8819 45.0664L9.99635 14.5885ZM3.85773 10.5377L24.2004 -20.3002L24.1063 -20.3623L24.0119 -20.4238L3.85773 10.5377ZM3.42726 11.2609V48.2041H116.691L25.2094 -18.5777L3.42726 11.2609ZM-18.5358 40.9698C-17.3346 41.8576 -14.3771 44.1016 -12.0421 45.7616L30.7692 -14.458C29.0835 -15.6564 28.1409 -16.4085 25.3817 -18.448L-18.5358 40.9698ZM-12.0421 45.7616C-9.99064 47.22 -7.89887 48.7002 -5.76925 50.1882L36.5497 -10.3784C34.6501 -11.7057 32.7384 -13.0581 30.7692 -14.458L-12.0421 45.7616ZM-2.52937 52.2111C5.92344 56.8997 15.8561 58.1535 25.2076 55.7139L6.55703 -15.7799C15.5767 -18.1328 25.1569 -16.9235 33.3098 -12.4013L-2.52937 52.2111ZM25.2076 55.7139C34.5596 53.2743 42.6138 47.328 47.6988 39.1081L-15.1361 0.236797C-10.2315 -7.69144 -2.4631 -13.4268 6.55703 -15.7799L25.2076 55.7139ZM45.8779 41.7823C43.6743 44.7321 41.5693 46.302 41.4113 46.4226C41.294 46.5121 41.3024 46.4997 41.813 46.1409C42.1501 45.904 43.1228 45.2269 44.0597 44.5372C47.4725 42.0249 59.1453 33.383 62.7715 16.7182L-9.42543 1.00811C-8.87093 -1.54013 -7.98752 -3.95185 -6.8551 -6.15854C-5.7369 -8.33751 -4.49635 -10.0835 -3.38458 -11.4152C-2.29412 -12.7215 -1.32025 -13.6377 -0.709636 -14.1736C-0.39795 -14.4471 -0.148752 -14.6495 0.00908768 -14.7743C0.089454 -14.8378 0.151932 -14.8859 0.192677 -14.9168C0.23332 -14.9477 0.256241 -14.9646 0.257126 -14.9652C0.257831 -14.9658 0.241389 -14.9537 0.202497 -14.9257C0.163217 -14.8975 0.108103 -14.8581 0.0295733 -14.8026C-0.168348 -14.6625 -0.313978 -14.5609 -0.666076 -14.3135C-1.21881 -13.9251 -2.26971 -13.1864 -3.40982 -12.3165C-4.58131 -11.4226 -6.13197 -10.1769 -7.80235 -8.60241C-9.48769 -7.01381 -11.4198 -4.97465 -13.3153 -2.43738L45.8779 41.7823ZM62.7785 16.686C66.6488 -1.17685 58.8142 -16.3886 49.2941 -25.1104C39.9561 -33.6654 25.0401 -39.7379 8.57131 -35.674L26.2729 36.0607C14.7933 38.8934 5.0624 34.573 -0.617582 29.3692C-6.47972 23.9986 -12.1835 13.7374 -9.43242 1.04029L62.7785 16.686ZM8.60004 -35.6811C-0.35772 -33.4782 -8.37101 -28.4564 -14.2592 -21.3556L42.6165 25.8075C38.3993 30.8932 32.6599 34.49 26.2441 36.0677L8.60004 -35.6811ZM-14.2592 -21.3556C-20.1474 -14.2548 -23.5992 -5.4505 -24.1059 3.76022L49.669 7.81884C49.3061 14.4158 46.8338 20.7217 42.6165 25.8075L-14.2592 -21.3556ZM12.7815 42.7328H14.0299V-31.1537H12.7815V42.7328ZM50.7104 1.39139C48.7045 -15.3377 37.8062 -25.599 29.1818 -30.4304C20.902 -35.0687 11.3448 -36.9462 2.20966 -35.9744L10.0258 37.4975C4.12789 38.1249 -1.68848 36.9663 -6.92909 34.0306C-12.5143 30.9017 -21.0752 23.3266 -22.6506 10.1877L50.7104 1.39139ZM3.04322 -36.0535C-8.42175 -35.0961 -19.0411 -29.6378 -26.4929 -20.8725L29.8003 26.9845C24.601 33.1003 17.1916 36.9086 9.19227 37.5766L3.04322 -36.0535ZM-26.8844 -20.4042C-33.2332 -12.6812 -39.8816 1.55252 -34.6956 18.3253L35.8937 -3.5004C40.124 10.1815 34.5517 21.2125 30.1918 26.5161L-26.8844 -20.4042ZM-34.6956 18.3253C-31.9489 27.2089 -23.6005 42.2018 -4.81967 46.7401L12.5351 -25.0792C27.9668 -21.3503 34.1026 -9.29323 35.8937 -3.5004L-34.6956 18.3253ZM-2.7513 47.1777C6.38324 48.8386 15.8102 47.0249 23.6776 42.0902L-15.583 -20.5023C-7.82846 -25.3662 1.46328 -27.1539 10.4668 -25.5168L-2.7513 47.1777ZM23.6776 42.0902C31.5449 37.1555 37.2814 29.4581 39.7624 20.5114L-31.4371 0.76696C-28.9917 -8.05138 -23.3375 -15.6384 -15.583 -20.5023L23.6776 42.0902ZM39.7624 20.5114C42.2437 11.5637 41.2901 2.01134 37.0882 -6.26955L-28.8013 27.1637C-32.9428 19.0016 -33.8828 9.58623 -31.4371 0.76696L39.7624 20.5114ZM37.0882 -6.26955C32.887 -14.5492 25.7416 -20.9602 17.0541 -24.2418L-9.0545 44.8781C-17.6174 41.6436 -24.6603 35.3246 -28.8013 27.1637L37.0882 -6.26955ZM13.7387 -25.3183C21.2452 -23.2669 27.7962 -18.6514 32.2544 -12.2734L-28.3046 30.0565C-22.8713 37.8296 -14.8874 43.4545 -5.73914 45.9546L13.7387 -25.3183ZM32.2544 -12.2734C36.7125 -5.89536 38.7964 1.84258 38.144 9.59701L-35.4823 3.40263C-36.2774 12.8531 -33.7378 22.2835 -28.3046 30.0565L32.2544 -12.2734ZM38.0488 10.5733C37.4828 15.675 35.6924 20.5642 32.8301 24.8248L-28.5013 -16.378C-32.278 -10.7563 -34.6403 -4.30509 -35.3871 2.42632L38.0488 10.5733ZM32.8301 24.8248C29.9678 29.0854 26.1183 32.5913 21.6093 35.044L-13.6958 -29.8618C-19.6452 -26.6257 -24.7245 -21.9997 -28.5013 -16.378L32.8301 24.8248ZM21.6982 34.9955C11.2272 40.7283 1.49575 38.8455 -3.37297 37.027L22.4789 -32.1892C14.0372 -35.3422 0.13015 -37.4317 -13.7847 -29.8133L21.6982 34.9955ZM-3.47487 36.9888C-6.37238 35.8969 -10.0717 33.9905 -13.6902 30.5817C-17.3565 27.1281 -22.6666 20.3768 -23.8895 10.1949L49.4698 1.38414C48.0489 -10.4465 41.8455 -18.6097 36.9729 -23.1998C32.1479 -27.745 26.929 -30.5124 22.5808 -32.151L-3.47487 36.9888ZM-24.1531 5.78954C-24.1531 15.7539 -20.1945 25.3091 -13.1498 32.3537L39.0958 -19.8919C45.9063 -13.0814 49.7334 -3.84379 49.7334 5.78952L-24.1531 5.78954ZM-13.1498 32.3537C-6.10481 39.3987 3.45051 43.357 13.4143 43.357V-30.5295C23.0471 -30.5295 32.2849 -26.7028 39.0958 -19.8919L-13.1498 32.3537ZM13.4143 43.357C23.3782 43.357 32.9335 39.3987 39.9785 32.3537L-12.2671 -19.8919C-5.45619 -26.7028 3.7816 -30.5295 13.4143 -30.5295V43.357ZM39.9785 32.3537C47.0245 25.3077 50.9818 15.7519 50.9818 5.78954L-22.9047 5.78952C-22.9047 -3.84179 -19.079 -13.08 -12.2671 -19.8919L39.9785 32.3537ZM50.8935 8.342C50.4316 15.0111 47.9 21.3696 43.6518 26.531L-13.3964 -20.4233C-18.9225 -13.7093 -22.2156 -5.43806 -22.8164 3.23706L50.8935 8.342ZM43.6518 26.531C39.4037 31.6924 33.6506 35.3995 27.1949 37.1352L8.01086 -34.2173C-0.386756 -31.9595 -7.87037 -27.1373 -13.3964 -20.4233L43.6518 26.531ZM27.3655 37.0889C14.5782 40.5926 3.7032 35.5258 -2.46917 29.3363L49.8489 -22.8368C40.5771 -32.1344 24.9324 -38.8543 7.84028 -34.171L27.3655 37.0889ZM-1.6742 30.1099C-5.88687 26.1318 -8.90629 21.0576 -10.3931 15.4576L61.0193 -3.50231C58.9789 -11.1875 54.8352 -18.1512 49.0539 -23.6104L-1.6742 30.1099ZM-10.3931 15.4576C-11.8799 9.8576 -11.775 3.95389 -10.0904 -1.58975L60.604 19.8929C62.9159 12.285 63.0598 4.18295 61.0193 -3.50231L-10.3931 15.4576ZM-9.76166 -2.61751C-7.93559 -8.05091 -5.08509 -11.5826 -3.45059 -13.3284C-2.59354 -14.2439 -1.86355 -14.8893 -1.41118 -15.268C-0.957208 -15.6481 -0.647113 -15.8719 -0.605617 -15.9019L42.6216 44.0199C44.7956 42.4516 55.5374 35.0178 60.2752 20.9206L-9.76166 -2.61751ZM-0.640008 -15.877C-1.04853 -15.5816 -1.00426 -15.6211 -1.97421 -14.9313C-2.65545 -14.4468 -3.7408 -13.6671 -4.94282 -12.722C-7.35229 -10.8274 -10.9984 -7.6863 -14.432 -3.08931L44.7648 41.1255C42.8938 43.6304 41.1267 45.0453 40.7265 45.36C40.5291 45.5152 40.481 45.5416 40.8462 45.2819C41.0481 45.1383 41.1993 45.0322 41.5423 44.7898C41.8334 44.5841 42.2279 44.3046 42.6559 43.9951L-0.640008 -15.877ZM24.6535 54.7224L25.5445 54.4857L6.5704 -16.923L5.67932 -16.6862L24.6535 54.7224ZM37.214 -11.504C35.1121 -12.9723 32.999 -14.4341 30.8746 -15.8894L-10.8819 45.0664C-8.9426 46.3949 -7.01499 47.7283 -5.09903 49.0667L37.214 -11.504ZM30.8762 -15.8883C28.5369 -17.491 25.5076 -19.4379 24.2004 -20.3002L-16.4849 41.3756C-13.694 43.2167 -12.5907 43.8957 -10.8835 45.0653L30.8762 -15.8883ZM24.0119 -20.4238C15.516 -25.9541 4.12463 -28.3495 -7.32016 -24.8305C-17.7388 -21.627 -24.6975 -14.6245 -28.5869 -7.96837C-36.1623 4.99582 -37.0045 27.4852 -18.3549 41.0995L25.2094 -18.5777C43.4286 -5.27767 42.5735 16.7016 35.2068 29.3085C31.4218 35.786 24.6229 42.648 14.395 45.7929C3.14098 49.2533 -8.02864 46.881 -16.2964 41.4992L24.0119 -20.4238ZM3.42726 -25.6823H3.42295V48.2041H3.42726V-25.6823Z" fill="#E20F87" mask="url(#path-1-inside-1_40_29458)"/>
<path d="M14.3005 14.2963C15.0108 14.4297 15.4542 15.2175 15.7082 15.8245C15.862 16.183 15.9579 16.5637 15.9923 16.9523C15.9946 17.2766 15.9599 17.6001 15.889 17.9166C15.8806 17.9534 15.8843 17.992 15.8995 18.0265C15.9147 18.0611 15.9406 18.0899 15.9733 18.1087C16.0061 18.1275 16.044 18.1353 16.0815 18.1309C16.119 18.1266 16.1541 18.1103 16.1817 18.0845C16.313 17.9388 16.4083 17.7644 16.4599 17.5753C16.5115 17.3861 16.5179 17.1875 16.4788 16.9954C16.4386 16.5285 16.3208 16.0717 16.1301 15.6437C15.8201 14.9377 15.2218 14.0681 14.4082 13.9519C14.1843 13.9218 14.081 14.2532 14.3134 14.2963H14.3005Z" fill="#E20F87"/>
<path d="M17.3396 13.4525C17.4171 14.124 17.5032 14.7913 17.5463 15.4671C17.5671 16.1433 17.5513 16.8202 17.4989 17.4947C17.4974 17.5354 17.511 17.5752 17.5373 17.6063C17.5635 17.6375 17.6004 17.6577 17.6408 17.6631C17.6811 17.6685 17.7221 17.6586 17.7555 17.6354C17.789 17.6123 17.8126 17.5774 17.8218 17.5377C17.9688 16.8571 17.9892 16.1552 17.8821 15.4671C17.8089 14.7784 17.684 14.1025 17.5721 13.4181C17.5506 13.2889 17.3267 13.319 17.3396 13.4525Z" fill="#E20F87"/>
<path d="M19.1691 13.1511C19.2165 13.5816 19.2983 14.0379 19.3069 14.4813C19.3136 14.6842 19.2918 14.8871 19.2423 15.084C19.1863 15.3078 19.1002 15.5145 19.027 15.7426C19.0148 15.785 19.0171 15.8301 19.0335 15.8711C19.0498 15.912 19.0794 15.9462 19.1174 15.9685C19.1554 15.9907 19.1998 15.9996 19.2435 15.9938C19.2872 15.988 19.3276 15.9678 19.3585 15.9363C19.53 15.7517 19.6578 15.5309 19.7323 15.2902C19.8068 15.0495 19.8262 14.7951 19.789 14.5459C19.741 14.0598 19.6648 13.5768 19.5608 13.0995C19.5221 12.8713 19.1304 12.923 19.1562 13.1511H19.1691Z" fill="#E20F87"/>
<path d="M20.2711 12.5699C20.317 12.9643 20.3242 13.3622 20.2926 13.758C20.2353 14.1558 20.2252 14.5589 20.2625 14.9591C20.2754 15.0027 20.302 15.0411 20.3385 15.0683C20.375 15.0956 20.4193 15.1103 20.4648 15.1103C20.5104 15.1103 20.5547 15.0956 20.5911 15.0683C20.6276 15.0411 20.6543 15.0027 20.6672 14.9591C20.7066 14.7446 20.7268 14.5271 20.7274 14.309C20.7274 14.1067 20.7274 13.9087 20.7274 13.7107C20.7418 13.2927 20.7129 12.8743 20.6413 12.4623C20.6344 12.4371 20.6225 12.4135 20.6064 12.3929C20.5902 12.3723 20.5702 12.3551 20.5474 12.3422C20.5245 12.3294 20.4994 12.3213 20.4734 12.3182C20.4474 12.3152 20.4211 12.3173 20.3959 12.3245C20.3448 12.3387 20.3013 12.3723 20.2747 12.4182C20.2482 12.4641 20.2407 12.5185 20.2539 12.5699H20.2711Z" fill="#E20F87"/>
<path d="M21.6272 12.2601C21.6272 12.5657 21.5928 12.8713 21.5928 13.177C21.5928 13.3276 21.5928 13.4783 21.6186 13.629C21.6315 13.8041 21.6737 13.9758 21.7434 14.1369C21.7695 14.1733 21.8051 14.2019 21.8462 14.2195C21.8874 14.2372 21.9326 14.2432 21.9769 14.237C22.0212 14.2308 22.0631 14.2126 22.0978 14.1843C22.1325 14.1561 22.1588 14.1188 22.1739 14.0767C22.1958 14.0064 22.2116 13.9344 22.2213 13.8614C22.2284 13.8254 22.2241 13.788 22.209 13.7545C22.1938 13.7211 22.1687 13.6931 22.1369 13.6747C22.1052 13.6562 22.0684 13.6481 22.0319 13.6515C21.9953 13.6548 21.9607 13.6696 21.9328 13.6935C21.854 13.7466 21.7843 13.812 21.7262 13.8873L22.1567 13.9475C22.1223 13.8055 22.062 13.672 22.0319 13.5171C22.0055 13.3865 21.9897 13.2541 21.9845 13.121C21.9845 12.8326 21.9845 12.5399 21.963 12.2601C21.963 12.211 21.9435 12.1639 21.9088 12.1292C21.874 12.0945 21.827 12.075 21.7779 12.075C21.7288 12.075 21.6817 12.0945 21.647 12.1292C21.6123 12.1639 21.5928 12.211 21.5928 12.2601H21.6272Z" fill="#E20F87"/>
<path d="M22.8714 11.4293C22.8607 11.7608 22.8305 12.0914 22.781 12.4194C22.726 12.7581 22.6986 13.1008 22.6992 13.4439C22.6992 13.6506 22.992 13.8141 23.1297 13.629C23.2279 13.5027 23.2957 13.3554 23.3277 13.1986C23.3665 13.0307 23.1469 12.8714 23.0178 13.0178C22.8886 13.1641 22.8456 13.1857 22.7638 13.2717L23.1943 13.4525C23.1728 13.1186 23.1728 12.7835 23.1943 12.4495C23.1943 12.1095 23.2416 11.7737 23.2373 11.4379C23.2305 11.3931 23.2079 11.3523 23.1735 11.3227C23.1392 11.2932 23.0954 11.277 23.0501 11.277C23.0048 11.277 22.961 11.2932 22.9266 11.3227C22.8922 11.3523 22.8696 11.3931 22.8628 11.4379L22.8714 11.4293Z" fill="#E20F87"/>
</g>
<defs>
<clipPath id="clip0_40_29458">
<rect width="26.4012" height="20" fill="white" transform="translate(0.417969)"/>
</clipPath>
</defs>
</svg>
