<svg width="13" height="15" viewBox="0 0 13 15" fill="none" xmlns="http://www.w3.org/2000/svg">
<path d="M6.32382 2.95125C6.67068 2.65889 7.23062 2.65889 7.56758 2.95125L8.3505 3.6202C8.49916 3.74408 8.78161 3.84814 8.97982 3.84814H9.8222C10.3475 3.84814 10.7786 4.27925 10.7786 4.8045V5.64689C10.7786 5.8451 10.8826 6.12259 11.0065 6.27125L11.6755 7.05417C11.9678 7.40104 11.9678 7.96098 11.6755 8.29793L11.0065 9.08086C10.8826 9.22951 10.7786 9.507 10.7786 9.70521V10.5476C10.7786 11.0729 10.3475 11.504 9.8222 11.504H8.97982C8.78161 11.504 8.50412 11.608 8.35546 11.7319L7.57253 12.4009C7.22567 12.6932 6.66573 12.6932 6.32877 12.4009L5.54585 11.7319C5.39719 11.608 5.11474 11.504 4.92149 11.504H4.05433C3.52907 11.504 3.09797 11.0729 3.09797 10.5476V9.70026C3.09797 9.507 2.99887 9.22456 2.87499 9.08086L2.20603 8.29298C1.91863 7.95107 1.91863 7.39608 2.20603 7.05417L2.87499 6.26629C2.99887 6.11763 3.09797 5.84014 3.09797 5.64689V4.80946C3.09797 4.2842 3.52907 3.8531 4.05433 3.8531H4.91158C5.10979 3.8531 5.38728 3.74904 5.53594 3.62516L6.32382 2.95125Z" stroke="white" stroke-width="0.743283" stroke-linecap="round" stroke-linejoin="round"/>
<path d="M6.15523 9.78582C6.05282 9.78582 5.97354 9.75774 5.91738 9.70158C5.86452 9.64212 5.83809 9.56118 5.83809 9.45877V6.57484C5.83809 6.46913 5.86617 6.38984 5.92233 6.33699C5.97849 6.28083 6.05778 6.25275 6.16018 6.25275H7.35439C7.7376 6.25275 8.03326 6.34855 8.24138 6.54015C8.4495 6.73175 8.55356 6.99933 8.55356 7.3429C8.55356 7.68646 8.4495 7.95569 8.24138 8.1506C8.03326 8.3422 7.7376 8.438 7.35439 8.438H6.47236V9.45877C6.47236 9.56118 6.44594 9.64212 6.39308 9.70158C6.34022 9.75774 6.26094 9.78582 6.15523 9.78582ZM6.47236 7.93752H7.25529C7.47992 7.93752 7.65005 7.88797 7.76568 7.78887C7.8813 7.68646 7.93911 7.5378 7.93911 7.3429C7.93911 7.14799 7.8813 7.00099 7.76568 6.90188C7.65005 6.80278 7.47992 6.75322 7.25529 6.75322H6.47236V7.93752Z" fill="white"/>
</svg>
