<svg width="110" height="61" viewBox="0 0 110 61" fill="none" xmlns="http://www.w3.org/2000/svg">
<path d="M10.7984 36.2554C23.7046 36.4141 36.6107 36.5347 49.5232 36.3379C62.3024 36.1411 75.0879 35.6459 87.829 34.5604C95.0237 33.9509 102.219 33.132 109.413 32.1036C110.321 31.9702 110.118 30.3578 109.197 30.4784C98.3884 31.9004 87.6068 33.515 76.8527 35.3222C66.0987 37.1293 55.3531 39.1269 44.616 41.315C38.5977 42.5381 32.5922 43.8078 26.5994 45.124C25.6599 45.3335 25.8439 46.9142 26.8279 46.8253C38.2097 45.8057 49.6433 45.4835 61.0644 45.8604C64.3148 45.9662 67.5609 46.1291 70.8028 46.3492L70.5679 44.6415L40.7307 49.1806C39.6896 49.3393 40.0261 50.8629 40.9657 50.92L70.333 52.8245L70.0917 51.0533L37.2773 59.1474C37.0679 59.2139 36.8886 59.3522 36.7711 59.5379C36.6537 59.7236 36.6055 59.9448 36.6351 60.1625C36.6646 60.3802 36.7701 60.5805 36.9329 60.7281C37.0956 60.8757 37.3053 60.9612 37.5248 60.9694L46.4633 60.5631C47.6695 60.506 47.6822 58.6586 46.4633 58.6586C45.2444 58.6586 43.8414 58.8491 42.5337 58.9062C41.4291 58.9506 41.4227 60.6774 42.5337 60.6266C43.8414 60.5758 45.1555 60.6266 46.4633 60.5504V58.6459L37.4741 59.0966L37.7216 60.925C48.6535 58.2036 59.5874 55.4887 70.5235 52.7801C71.5519 52.5261 71.2662 51.066 70.2822 51.0025L40.9276 49.1361L41.1625 50.8756L70.9996 46.3048C72.0217 46.1461 71.6915 44.6606 70.771 44.5971C59.3586 43.8353 47.9104 43.7696 36.4901 44.4003C33.244 44.5865 30.0042 44.8235 26.7708 45.1113L27.0057 46.8126C37.6201 44.4426 48.2726 42.2503 58.9632 40.2358C69.6537 38.2212 80.376 36.3908 91.1301 34.7445C97.1991 33.8176 103.274 32.9331 109.356 32.0909L108.918 30.4974C96.2215 32.4019 83.4677 33.5446 70.6758 34.1985C57.8839 34.8524 45.0921 35.0238 32.2938 35.0682C25.1139 35.0682 17.9339 35.0682 10.754 35.0682C10.5957 35.0682 10.4439 35.1311 10.332 35.243C10.2201 35.3549 10.1572 35.5067 10.1572 35.665C10.1572 35.8232 10.2201 35.975 10.332 36.0869C10.4439 36.1988 10.5957 36.2617 10.754 36.2617L10.7984 36.2554Z" fill="#E20F87"/>
<path d="M3.85884 23.2034C3.19597 23.2034 2.68374 23.0226 2.32217 22.661C1.96061 22.2844 1.77982 21.7646 1.77982 21.1018V9.16999C1.77982 8.49205 1.96061 7.9723 2.32217 7.61073C2.69881 7.24916 3.21856 7.06838 3.88144 7.06838H9.44056C11.2484 7.06838 12.6419 7.5354 13.6212 8.46946C14.6155 9.38844 15.1127 10.6615 15.1127 12.2885C15.1127 13.9156 14.6155 15.1961 13.6212 16.1302C12.6419 17.0492 11.2484 17.5087 9.44056 17.5087H5.93786V21.1018C5.93786 21.7646 5.76461 22.2844 5.41811 22.661C5.0716 23.0226 4.55185 23.2034 3.85884 23.2034ZM5.93786 14.3223H8.71742C9.50082 14.3223 10.1034 14.1566 10.5253 13.8252C10.9471 13.4787 11.158 12.9665 11.158 12.2885C11.158 11.5955 10.9471 11.0833 10.5253 10.7519C10.1034 10.4204 9.50082 10.2547 8.71742 10.2547H5.93786V14.3223ZM18.6157 23.2034C17.9528 23.2034 17.4406 23.0301 17.0791 22.6836C16.7325 22.3371 16.5593 21.8324 16.5593 21.1696V13.6896C16.5593 13.0418 16.725 12.5446 17.0565 12.1981C17.403 11.8516 17.8926 11.6784 18.5253 11.6784C19.1581 11.6784 19.6402 11.8516 19.9716 12.1981C20.303 12.5446 20.4688 13.0418 20.4688 13.6896V14.6161H20.2428C20.3934 13.7122 20.7776 12.9966 21.3953 12.4693C22.028 11.942 22.8114 11.6633 23.7455 11.6332C24.1824 11.6181 24.5063 11.7311 24.7172 11.9722C24.9432 12.1981 25.0637 12.6275 25.0788 13.2602C25.0788 13.8026 24.9658 14.232 24.7398 14.5483C24.5138 14.8647 24.0844 15.053 23.4517 15.1133L22.9319 15.1585C22.1335 15.2338 21.5535 15.4598 21.1919 15.8364C20.8303 16.198 20.6495 16.7403 20.6495 17.4635V21.1696C20.6495 21.8324 20.4763 22.3371 20.1298 22.6836C19.7833 23.0301 19.2786 23.2034 18.6157 23.2034ZM28.3463 23.2034C27.7136 23.2034 27.2239 23.0151 26.8774 22.6384C26.5309 22.2618 26.3577 21.7194 26.3577 21.0114V13.8704C26.3577 13.1623 26.5309 12.62 26.8774 12.2433C27.2239 11.8667 27.7136 11.6784 28.3463 11.6784C28.9941 11.6784 29.4913 11.8667 29.8378 12.2433C30.1993 12.62 30.3801 13.1623 30.3801 13.8704V21.0114C30.3801 21.7194 30.2069 22.2618 29.8604 22.6384C29.5139 23.0151 29.0092 23.2034 28.3463 23.2034ZM28.3463 10.0739C27.6382 10.0739 27.0883 9.9082 26.6966 9.57676C26.32 9.24532 26.1317 8.76323 26.1317 8.13048C26.1317 7.5128 26.32 7.03824 26.6966 6.70681C27.0883 6.37537 27.6382 6.20965 28.3463 6.20965C29.0845 6.20965 29.6419 6.37537 30.0186 6.70681C30.3952 7.03824 30.5835 7.5128 30.5835 8.13048C30.5835 8.76323 30.3952 9.24532 30.0186 9.57676C29.6419 9.9082 29.0845 10.0739 28.3463 10.0739ZM37.6397 23.2034C37.1125 23.2034 36.6605 23.0753 36.2839 22.8192C35.9223 22.548 35.621 22.1488 35.3799 21.6215L32.1484 14.232C31.9676 13.78 31.9074 13.3582 31.9676 12.9665C32.0279 12.5748 32.2162 12.2659 32.5326 12.0399C32.864 11.7989 33.316 11.6784 33.8885 11.6784C34.3706 11.6784 34.7547 11.7914 35.041 12.0173C35.3423 12.2283 35.6135 12.6501 35.8545 13.2828L38.1369 19.1583H37.3686L39.764 13.2602C40.005 12.6426 40.2762 12.2283 40.5775 12.0173C40.8788 11.7914 41.2931 11.6784 41.8204 11.6784C42.2723 11.6784 42.6339 11.7989 42.9051 12.0399C43.1913 12.2659 43.3646 12.5748 43.4248 12.9665C43.4851 13.3582 43.4098 13.78 43.1989 14.232L39.8995 21.6441C39.6736 22.1714 39.3723 22.5631 38.9956 22.8192C38.6341 23.0753 38.1821 23.2034 37.6397 23.2034ZM48.6049 23.2486C47.7462 23.2486 46.9854 23.0904 46.3225 22.774C45.6747 22.4576 45.1625 22.0283 44.7858 21.4859C44.4243 20.9285 44.2435 20.2958 44.2435 19.5877C44.2435 18.7742 44.4544 18.1339 44.8762 17.6669C45.2981 17.1998 45.976 16.8684 46.9101 16.6725C47.8441 16.4616 49.087 16.3562 50.6387 16.3562H51.8816V18.2544H50.6387C50.0512 18.2544 49.5616 18.2996 49.1699 18.39C48.7932 18.4653 48.5145 18.5934 48.3337 18.7742C48.153 18.9399 48.0626 19.1583 48.0626 19.4295C48.0626 19.776 48.1831 20.0623 48.4241 20.2882C48.6802 20.5142 49.0418 20.6272 49.5088 20.6272C49.8855 20.6272 50.2169 20.5443 50.5032 20.3786C50.8045 20.2129 51.0455 19.9869 51.2263 19.7007C51.4071 19.3994 51.4975 19.0529 51.4975 18.6612V16.0398C51.4975 15.4974 51.3543 15.1133 51.0681 14.8873C50.7969 14.6613 50.3224 14.5483 49.6444 14.5483C49.2829 14.5483 48.8761 14.5935 48.4241 14.6839C47.9722 14.7592 47.4675 14.9024 46.9101 15.1133C46.5033 15.2639 46.1568 15.2865 45.8706 15.1811C45.5843 15.0756 45.3583 14.8948 45.1926 14.6387C45.042 14.3826 44.9666 14.1039 44.9666 13.8026C44.9817 13.5013 45.0796 13.215 45.2604 12.9439C45.4563 12.6727 45.75 12.4618 46.1417 12.3111C46.8649 12.0399 47.5277 11.8592 48.1304 11.7688C48.748 11.6784 49.313 11.6332 49.8252 11.6332C51.0606 11.6332 52.0775 11.814 52.8759 12.1755C53.6895 12.522 54.2921 13.0644 54.6838 13.8026C55.0906 14.5257 55.2939 15.4598 55.2939 16.6048V21.1696C55.2939 21.8324 55.1358 22.3371 54.8194 22.6836C54.503 23.0301 54.0435 23.2034 53.4409 23.2034C52.8232 23.2034 52.3487 23.0301 52.0172 22.6836C51.7008 22.3371 51.5427 21.8324 51.5427 21.1696V20.582L51.6783 20.8984C51.6029 21.3805 51.4297 21.7948 51.1585 22.1413C50.8873 22.4878 50.5333 22.759 50.0964 22.9548C49.6595 23.1507 49.1623 23.2486 48.6049 23.2486ZM63.4148 23.2486C62.2849 23.2486 61.3508 23.0753 60.6126 22.7288C59.8895 22.3823 59.3471 21.8626 58.9855 21.1696C58.624 20.4615 58.4432 19.5802 58.4432 18.5256V14.8421H57.6749C57.1928 14.8421 56.8161 14.714 56.545 14.4579C56.2888 14.2018 56.1608 13.8327 56.1608 13.3506C56.1608 12.8685 56.2888 12.507 56.545 12.2659C56.8161 12.0098 57.1928 11.8818 57.6749 11.8818H58.4432V10.4807C58.4432 9.8178 58.6164 9.31311 58.9629 8.96661C59.3094 8.62011 59.8066 8.44686 60.4544 8.44686C61.1022 8.44686 61.5994 8.62011 61.9459 8.96661C62.2924 9.31311 62.4656 9.8178 62.4656 10.4807V11.8818H64.3187C64.8158 11.8818 65.1925 12.0098 65.4486 12.2659C65.7198 12.507 65.8553 12.8685 65.8553 13.3506C65.8553 13.8327 65.7198 14.2018 65.4486 14.4579C65.1925 14.714 64.8158 14.8421 64.3187 14.8421H62.4656V18.39C62.4656 18.9474 62.5937 19.3617 62.8498 19.6329C63.121 19.889 63.5428 20.0171 64.1153 20.0171C64.3262 20.0171 64.5296 19.9945 64.7254 19.9493C64.9213 19.9041 65.1021 19.8815 65.2678 19.8815C65.5088 19.8664 65.7047 19.9417 65.8553 20.1074C66.006 20.2581 66.0813 20.6121 66.0813 21.1696C66.0813 21.6215 66.0135 22.0057 65.8779 22.3221C65.7424 22.6234 65.5013 22.8418 65.1548 22.9774C64.9439 23.0527 64.6577 23.113 64.2961 23.1582C63.9345 23.2184 63.6407 23.2486 63.4148 23.2486ZM73.1522 23.2486C71.7963 23.2486 70.6212 23.0151 69.6269 22.548C68.6477 22.0659 67.8944 21.388 67.3671 20.5142C66.8398 19.6404 66.5762 18.6084 66.5762 17.4183C66.5762 16.2733 66.8248 15.2715 67.3219 14.4127C67.8342 13.539 68.5272 12.861 69.401 12.3789C70.2898 11.8818 71.2992 11.6332 72.4291 11.6332C73.2577 11.6332 74.011 11.7688 74.6889 12.0399C75.3668 12.2961 75.9469 12.6802 76.4289 13.1924C76.911 13.6896 77.2726 14.2922 77.5137 15.0003C77.7698 15.7084 77.8978 16.4993 77.8978 17.3731C77.8978 17.6744 77.815 17.9004 77.6492 18.051C77.4835 18.1866 77.2199 18.2544 76.8583 18.2544H69.9433V16.3562H74.9601L74.5985 16.6499C74.5985 16.0925 74.5232 15.6406 74.3725 15.2941C74.2219 14.9476 73.9959 14.6839 73.6946 14.5031C73.4083 14.3223 73.0468 14.232 72.6099 14.232C72.1428 14.232 71.7361 14.3449 71.3896 14.5709C71.0581 14.7818 70.802 15.0982 70.6212 15.52C70.4405 15.9419 70.3501 16.4692 70.3501 17.1019V17.3053C70.3501 18.3749 70.5836 19.1433 71.0506 19.6103C71.5327 20.0623 72.2709 20.2882 73.2652 20.2882C73.5967 20.2882 73.9733 20.2506 74.3951 20.1752C74.832 20.0849 75.2463 19.9643 75.638 19.8137C76.0297 19.663 76.3687 19.6404 76.6549 19.7459C76.9412 19.8363 77.1596 20.002 77.3103 20.243C77.476 20.469 77.5664 20.7327 77.5814 21.034C77.5965 21.3202 77.5287 21.6065 77.3781 21.8927C77.2274 22.1639 76.9788 22.3748 76.6323 22.5254C76.105 22.7665 75.5401 22.9473 74.9375 23.0678C74.3499 23.1883 73.7548 23.2486 73.1522 23.2486ZM84.06 23.2486C83.3971 23.2486 82.7192 23.1958 82.0262 23.0904C81.3483 23 80.7306 22.8267 80.1732 22.5706C79.7965 22.42 79.5253 22.2166 79.3596 21.9605C79.209 21.7044 79.1336 21.4332 79.1336 21.147C79.1487 20.8607 79.2316 20.6046 79.3822 20.3786C79.5479 20.1376 79.7589 19.9719 80.015 19.8815C80.2861 19.776 80.5875 19.7835 80.9189 19.9041C81.5516 20.13 82.1166 20.2958 82.6137 20.4012C83.126 20.4916 83.6156 20.5368 84.0826 20.5368C84.64 20.5368 85.0393 20.4615 85.2803 20.3108C85.5214 20.1451 85.6419 19.9342 85.6419 19.6781C85.6419 19.4521 85.559 19.2789 85.3933 19.1583C85.2427 19.0378 85.0242 18.9549 84.738 18.9098L82.2296 18.503C81.2955 18.3373 80.5724 17.9983 80.0602 17.4861C79.5479 16.9588 79.2918 16.2733 79.2918 15.4297C79.2918 14.6463 79.5103 13.9758 79.9472 13.4184C80.3991 12.8459 81.0093 12.409 81.7776 12.1077C82.561 11.7914 83.4574 11.6332 84.4668 11.6332C85.1447 11.6332 85.7624 11.6859 86.3198 11.7914C86.8772 11.8818 87.4196 12.055 87.9469 12.3111C88.2783 12.4467 88.5118 12.6426 88.6474 12.8987C88.783 13.1548 88.8357 13.426 88.8056 13.7122C88.7755 13.9834 88.6776 14.2395 88.5118 14.4805C88.3612 14.7065 88.1503 14.8647 87.8791 14.9551C87.6079 15.0304 87.2915 15.0078 86.93 14.8873C86.4328 14.6915 85.9884 14.5483 85.5967 14.4579C85.2201 14.3675 84.866 14.3223 84.5346 14.3223C83.9169 14.3223 83.48 14.4052 83.2239 14.5709C82.9678 14.7366 82.8397 14.9476 82.8397 15.2037C82.8397 15.3995 82.9075 15.5652 83.0431 15.7008C83.1787 15.8214 83.3896 15.9042 83.6759 15.9494L86.1842 16.3788C87.1484 16.5294 87.8866 16.8609 88.3988 17.3731C88.9261 17.8702 89.1898 18.5482 89.1898 19.4069C89.1898 20.6272 88.7228 21.5763 87.7887 22.2543C86.8546 22.9171 85.6118 23.2486 84.06 23.2486Z" fill="#E20F87"/>
</svg>
