<svg width="20" height="20" viewBox="0 0 20 20" fill="none" xmlns="http://www.w3.org/2000/svg">
<path d="M4.0708 14.459C4.0708 14.459 4.8828 12.822 6.0648 12.822C7.2468 12.822 7.8508 14.197 9.1608 14.197C10.4698 14.197 11.9388 10.749 13.4228 10.749C14.9048 10.749 15.9708 13.14 15.9708 13.14" stroke="#130F26" stroke-width="1.5" stroke-linecap="round" stroke-linejoin="round"/>
<path fill-rule="evenodd" clip-rule="evenodd" d="M8.13941 7.10491C8.13941 7.96491 7.44241 8.66291 6.58141 8.66291C5.72141 8.66291 5.02441 7.96491 5.02441 7.10491C5.02441 6.24491 5.72141 5.54691 6.58141 5.54691C7.44241 5.54791 8.13941 6.24491 8.13941 7.10491Z" stroke="#130F26" stroke-width="1.5" stroke-linecap="round" stroke-linejoin="round"/>
<path fill-rule="evenodd" clip-rule="evenodd" d="M0.750488 10.0001C0.750488 16.9371 3.06349 19.2501 10.0005 19.2501C16.9375 19.2501 19.2505 16.9371 19.2505 10.0001C19.2505 3.06309 16.9375 0.750092 10.0005 0.750092C3.06349 0.750092 0.750488 3.06309 0.750488 10.0001Z" stroke="#130F26" stroke-width="1.5" stroke-linecap="round" stroke-linejoin="round"/>
</svg>
