<svg width="309" height="157" viewBox="0 0 309 157" fill="none" xmlns="http://www.w3.org/2000/svg">
<g clip-path="url(#clip0_36_29446)">
<path d="M-1.4655 119.52C0.735895 104.434 5.91035 89.7974 13.8269 76.2648C19.7059 66.1558 29.8121 52.7601 44.9447 56.0156C48.4616 56.8454 51.7224 58.3545 54.4883 60.4324C57.2541 62.5104 59.455 65.1045 60.9298 68.0249C64.3044 74.4268 64.3577 81.2804 63.2743 88.1339C62.4217 93.5078 61.0897 100.065 64.8728 104.847C68.656 109.629 75.1921 110.315 80.8579 108.383C97.8022 102.713 93.1664 82.1526 106.345 73.3987C107.393 72.6978 106.345 71.109 105.297 71.8411C99.4184 75.6729 96.6121 81.5919 94.3565 87.5109C91.9764 93.7414 89.703 101.343 82.9183 105.05C76.5597 108.508 68.1054 107.277 66.4891 100.143C65.086 93.9907 68.1409 87.5732 68.4783 81.4517C69.2066 68.134 60.7699 53.7726 44.6249 51.3583C29.297 49.0841 17.9831 59.8318 11.2871 70.595C2.12523 85.7803 -3.44477 102.432 -5.08881 119.551C-5.30195 121.545 -1.82074 121.498 -1.53656 119.551L-1.4655 119.52Z" fill="#514F43"/>
<path d="M91.4081 70.081C100.378 64.7695 109.169 59.3333 118.05 53.8972L115.457 52.9626C117.073 61.2025 118.636 69.4268 120.217 77.6667L123.059 75.7352C115.386 72.6199 107.689 69.5047 99.969 66.3894L100.413 69.3489L113.29 59.3177L109.738 58.4922C110.786 62.9314 111.869 67.3551 112.917 71.7944L115.475 69.5358L104.48 66.6853L103.344 70.2835L108.867 71.3738C109.177 71.4446 109.501 71.4528 109.814 71.3979C110.128 71.3431 110.423 71.2265 110.678 71.0571C110.933 70.8876 111.14 70.6697 111.285 70.4197C111.43 70.1697 111.508 69.8941 111.514 69.6137V59.3489L107.748 60.2523L112.704 69.4112C112.935 69.702 113.263 69.9229 113.643 70.0435C114.023 70.164 114.436 70.1783 114.825 70.0844C115.215 69.9904 115.562 69.7928 115.818 69.5189C116.074 69.2449 116.227 68.908 116.256 68.5545C116.256 65.1277 116.209 61.7061 116.114 58.2897H112.384C112.846 61.81 113.272 65.3302 113.698 68.8505C113.947 70.8286 117.411 70.9377 117.251 68.8505C117.126 65.5794 117.038 62.3084 116.931 59.0374C116.931 58.6243 116.744 58.2281 116.411 57.936C116.078 57.6438 115.626 57.4797 115.155 57.4797C114.684 57.4797 114.232 57.6438 113.899 57.936C113.566 58.2281 113.379 58.6243 113.379 59.0374C113.006 62.4486 112.651 65.8598 112.278 69.2554L115.031 67.8691C112.189 66.3115 109.347 64.7539 106.541 63.1963C106.205 63.0305 105.82 62.9549 105.436 62.9787C105.051 63.0026 104.683 63.1249 104.376 63.3305C104.07 63.536 103.839 63.8159 103.713 64.1353C103.586 64.4548 103.569 64.7998 103.663 65.1277C104.64 67.838 105.813 70.486 106.896 73.1495C107.731 75.1433 111.354 74.3177 110.572 72.2617C109.542 69.5825 108.583 66.8723 107.429 64.2243L104.569 66.1558C107.464 67.7134 110.324 69.1776 113.183 70.7196C113.458 70.8789 113.778 70.9681 114.107 70.9772C114.436 70.9863 114.762 70.915 115.047 70.7711C115.333 70.6273 115.567 70.4167 115.724 70.1628C115.881 69.9089 115.955 69.6217 115.936 69.3333L117.002 59.1152H113.45C113.556 62.3863 113.681 65.6573 113.77 68.9283H117.322C116.907 65.4081 116.505 61.8878 116.114 58.3676C116.114 57.9338 115.918 57.5178 115.568 57.2111C115.218 56.9044 114.744 56.7321 114.249 56.7321C113.754 56.7321 113.28 56.9044 112.93 57.2111C112.581 57.5178 112.384 57.9338 112.384 58.3676C112.384 61.7788 112.384 65.2056 112.384 68.6324L115.936 67.7757L111.123 58.5389C110.235 56.8567 107.393 57.7913 107.358 59.4268L107.145 69.6916L109.791 67.9159L104.303 66.7632C103.769 66.6584 103.21 66.7374 102.741 66.984C102.272 67.2306 101.929 67.6259 101.783 68.0881C101.637 68.5503 101.699 69.044 101.956 69.4672C102.214 69.8903 102.647 70.2104 103.166 70.3614L114.196 73.1495C114.551 73.2269 114.923 73.2222 115.275 73.1359C115.627 73.0495 115.948 72.8845 116.206 72.6569C116.463 72.4293 116.649 72.1469 116.745 71.8373C116.841 71.5278 116.844 71.2017 116.753 70.891C115.688 66.4673 114.675 62.028 113.627 57.5888C113.528 57.2751 113.336 56.9898 113.072 56.7611C112.807 56.5324 112.48 56.3682 112.121 56.2848C111.762 56.2014 111.384 56.2016 111.025 56.2856C110.667 56.3695 110.339 56.5341 110.075 56.7632C105.777 60.0966 101.443 63.4143 97.1628 66.7632C96.9333 66.9679 96.7597 67.2156 96.655 67.4875C96.5503 67.7595 96.5172 68.0488 96.5582 68.3336C96.5993 68.6183 96.7133 68.8913 96.8919 69.1319C97.0704 69.3725 97.3087 69.5745 97.589 69.7227C105.357 72.7757 113.124 75.7975 120.892 78.7882C121.228 78.9419 121.608 79.008 121.986 78.9788C122.364 78.9496 122.724 78.8262 123.025 78.6231C123.325 78.4201 123.553 78.1459 123.682 77.833C123.811 77.52 123.835 77.1812 123.751 76.8567C121.975 68.6635 120.323 60.4548 118.654 52.2461C118.579 52.019 118.447 51.8097 118.266 51.6341C118.086 51.4586 117.862 51.3213 117.612 51.2328C117.363 51.1442 117.093 51.1067 116.824 51.123C116.555 51.1394 116.294 51.2091 116.061 51.3271C107.18 56.8411 98.4593 62.3707 89.7563 68.0249C88.3176 68.9595 89.6497 71.1402 91.195 70.19L91.4081 70.081Z" fill="#514F43"/>
</g>
<path d="M152.01 117.11C172.34 117.36 192.67 117.55 213.01 117.24C233.14 116.93 253.28 116.15 273.35 114.44C284.683 113.48 296.017 112.19 307.35 110.57C308.78 110.36 308.46 107.82 307.01 108.01C289.983 110.25 273 112.793 256.06 115.64C239.12 118.487 222.193 121.633 205.28 125.08C195.8 127.007 186.34 129.007 176.9 131.08C175.42 131.41 175.71 133.9 177.26 133.76C195.189 132.154 213.199 131.646 231.19 132.24C236.31 132.407 241.423 132.663 246.53 133.01L246.16 130.32L199.16 137.47C197.52 137.72 198.05 140.12 199.53 140.21L245.79 143.21L245.41 140.42L193.72 153.17C193.39 153.275 193.108 153.493 192.923 153.785C192.738 154.078 192.662 154.426 192.708 154.769C192.755 155.112 192.921 155.428 193.177 155.66C193.434 155.893 193.764 156.027 194.11 156.04L208.19 155.4C210.09 155.31 210.11 152.4 208.19 152.4C206.27 152.4 204.06 152.7 202 152.79C200.26 152.86 200.25 155.58 202 155.5C204.06 155.42 206.13 155.5 208.19 155.38V152.38L194.03 153.09L194.42 155.97C211.64 151.683 228.863 147.407 246.09 143.14C247.71 142.74 247.26 140.44 245.71 140.34L199.47 137.4L199.84 140.14L246.84 132.94C248.45 132.69 247.93 130.35 246.48 130.25C228.503 129.05 210.47 128.947 192.48 129.94C187.367 130.233 182.263 130.607 177.17 131.06L177.54 133.74C194.26 130.007 211.04 126.553 227.88 123.38C244.72 120.207 261.61 117.323 278.55 114.73C288.11 113.27 297.68 111.877 307.26 110.55L306.57 108.04C286.57 111.04 266.48 112.84 246.33 113.87C226.18 114.9 206.03 115.17 185.87 115.24C174.56 115.24 163.25 115.24 151.94 115.24C151.691 115.24 151.452 115.339 151.275 115.515C151.099 115.692 151 115.931 151 116.18C151 116.429 151.099 116.669 151.275 116.845C151.452 117.021 151.691 117.12 151.94 117.12L152.01 117.11Z" fill="#E20F87"/>
<g clip-path="url(#clip1_36_29446)">
<path d="M113.98 26.16C118.58 29.56 123.11 33.04 127.78 36.36C132.45 39.68 137.1 42.97 141.78 46.24C142.128 46.4332 142.538 46.4849 142.923 46.3843C143.309 46.2838 143.64 46.0387 143.85 45.7C150.79 36.41 165.27 33.09 167.99 20.59C170.59 8.58999 158.09 -2.41001 146.5 0.449993C143.547 1.17606 140.906 2.83126 138.966 5.17172C137.025 7.51218 135.887 10.4141 135.72 13.45H138.62C137.62 5.10999 127.76 0.97 120.24 1.77C116.215 2.10616 112.486 4.02251 109.87 7.1C107.56 9.91 106.31 13.63 107.42 17.22C108.53 20.81 111.1 24.22 114.99 25.16C115.142 25.1877 115.299 25.1574 115.43 25.0752C115.561 24.993 115.657 24.8648 115.698 24.7157C115.74 24.5666 115.724 24.4074 115.654 24.2695C115.584 24.1315 115.465 24.0247 115.32 23.97C113.413 23.4488 111.749 22.2763 110.616 20.656C109.484 19.0357 108.954 17.0699 109.12 15.1C109.33 13.207 109.994 11.3928 111.056 9.8119C112.119 8.23095 113.547 6.93006 115.22 6.02C119.22 3.83 124.07 4.07001 128.22 5.62001C131.59 6.89001 135.28 9.61999 135.74 13.45C135.74 13.8346 135.893 14.2034 136.165 14.4753C136.437 14.7472 136.805 14.9 137.19 14.9C137.575 14.9 137.943 14.7472 138.215 14.4753C138.487 14.2034 138.64 13.8346 138.64 13.45C138.801 11.1199 139.686 8.89834 141.17 7.09498C142.654 5.29163 144.664 3.99642 146.92 3.39C151.92 2.02 157.46 3.94 161.06 7.55C162.882 9.27047 164.188 11.4651 164.831 13.887C165.474 16.309 165.429 18.8624 164.7 21.26C163.07 26.11 158.85 29.76 154.83 32.66C149.99 36.16 144.89 39.32 141.26 44.18L143.33 43.63C138.663 40.37 133.97 37.1233 129.25 33.89C124.55 30.67 119.75 27.62 114.99 24.48C113.93 23.79 112.99 25.43 113.99 26.16H113.98Z" fill="#E20F87"/>
<path d="M139.25 33.21C140.9 33.52 141.93 35.35 142.52 36.76C142.877 37.5929 143.1 38.4772 143.18 39.38C143.185 40.1334 143.105 40.8849 142.94 41.62C142.921 41.7056 142.929 41.7951 142.964 41.8754C143 41.9557 143.06 42.0227 143.136 42.0663C143.212 42.11 143.3 42.128 143.387 42.1179C143.474 42.1078 143.556 42.0699 143.62 42.01C143.925 41.6717 144.146 41.2666 144.266 40.8271C144.386 40.3877 144.401 39.9263 144.31 39.48C144.217 38.3955 143.943 37.3342 143.5 36.34C142.78 34.7 141.39 32.68 139.5 32.41C138.98 32.34 138.74 33.11 139.28 33.21H139.25Z" fill="#E20F87"/>
<path d="M146.31 31.25C146.49 32.81 146.69 34.36 146.79 35.93C146.838 37.5008 146.802 39.0731 146.68 40.64C146.676 40.7345 146.708 40.827 146.769 40.8994C146.83 40.9717 146.916 41.0188 147.009 41.0313C147.103 41.0438 147.198 41.0209 147.276 40.967C147.354 40.9131 147.409 40.8322 147.43 40.74C147.771 39.1588 147.819 37.5283 147.57 35.93C147.4 34.33 147.11 32.76 146.85 31.17C146.8 30.87 146.28 30.94 146.31 31.25Z" fill="#E20F87"/>
<path d="M150.56 30.55C150.67 31.55 150.86 32.61 150.88 33.64C150.896 34.1114 150.845 34.5826 150.73 35.04C150.6 35.56 150.4 36.04 150.23 36.57C150.202 36.6683 150.207 36.7733 150.245 36.8684C150.283 36.9634 150.352 37.043 150.44 37.0947C150.528 37.1463 150.631 37.167 150.733 37.1535C150.834 37.14 150.928 37.093 151 37.02C151.398 36.5912 151.695 36.0782 151.868 35.519C152.041 34.9599 152.086 34.3689 152 33.79C151.888 32.6607 151.711 31.5388 151.47 30.43C151.38 29.9 150.47 30.02 150.53 30.55H150.56Z" fill="#E20F87"/>
<path d="M153.12 29.2C153.227 30.1162 153.243 31.0406 153.17 31.96C153.037 32.884 153.013 33.8205 153.1 34.75C153.13 34.8515 153.192 34.9405 153.277 35.0039C153.361 35.0672 153.464 35.1014 153.57 35.1014C153.676 35.1014 153.779 35.0672 153.863 35.0039C153.948 34.9405 154.01 34.8515 154.04 34.75C154.132 34.2519 154.179 33.7465 154.18 33.24C154.18 32.77 154.18 32.31 154.18 31.85C154.213 30.879 154.146 29.9072 153.98 28.95C153.964 28.8914 153.936 28.8366 153.899 28.7887C153.861 28.7409 153.815 28.7009 153.762 28.6711C153.709 28.6414 153.65 28.6224 153.59 28.6154C153.53 28.6083 153.468 28.6133 153.41 28.63C153.291 28.6628 153.19 28.7409 153.128 28.8475C153.067 28.9541 153.049 29.0807 153.08 29.2H153.12Z" fill="#E20F87"/>
<path d="M156.27 28.48C156.27 29.19 156.19 29.9 156.19 30.61C156.19 30.96 156.19 31.31 156.25 31.66C156.28 32.0668 156.378 32.4656 156.54 32.84C156.601 32.9245 156.683 32.9909 156.779 33.0319C156.874 33.0729 156.979 33.0869 157.082 33.0725C157.185 33.0581 157.282 33.0157 157.363 32.9501C157.444 32.8844 157.505 32.7979 157.54 32.7C157.591 32.5368 157.628 32.3695 157.65 32.2C157.667 32.1163 157.657 32.0295 157.621 31.9517C157.586 31.8739 157.528 31.8091 157.454 31.7661C157.38 31.7232 157.295 31.7044 157.21 31.7122C157.125 31.7201 157.045 31.7543 156.98 31.81C156.797 31.9333 156.635 32.0853 156.5 32.26L157.5 32.4C157.42 32.07 157.28 31.76 157.21 31.4C157.149 31.0968 157.112 30.7891 157.1 30.48C157.1 29.81 157.1 29.13 157.05 28.48C157.05 28.366 157.005 28.2566 156.924 28.1759C156.843 28.0953 156.734 28.05 156.62 28.05C156.506 28.05 156.397 28.0953 156.316 28.1759C156.235 28.2566 156.19 28.366 156.19 28.48H156.27Z" fill="#E20F87"/>
<path d="M159.16 26.55C159.135 27.3201 159.065 28.0881 158.95 28.85C158.822 29.6369 158.759 30.4328 158.76 31.23C158.76 31.71 159.44 32.09 159.76 31.66C159.988 31.3664 160.146 31.0242 160.22 30.66C160.31 30.27 159.8 29.9 159.5 30.24C159.2 30.58 159.1 30.63 158.91 30.83L159.91 31.25C159.86 30.4741 159.86 29.6959 159.91 28.92C159.91 28.13 160.02 27.35 160.01 26.57C159.994 26.466 159.942 26.3711 159.862 26.3025C159.782 26.2339 159.68 26.1962 159.575 26.1962C159.47 26.1962 159.368 26.2339 159.288 26.3025C159.208 26.3711 159.156 26.466 159.14 26.57L159.16 26.55Z" fill="#E20F87"/>
</g>
<path d="M140.694 95.3204C139.65 95.3204 138.843 95.0356 138.273 94.466C137.704 93.8728 137.419 93.054 137.419 92.0099V73.2147C137.419 72.1468 137.704 71.3281 138.273 70.7585C138.866 70.189 139.685 69.9042 140.729 69.9042H149.486C152.334 69.9042 154.529 70.6399 156.072 72.1112C157.638 73.5588 158.421 75.5641 158.421 78.1271C158.421 80.6901 157.638 82.7072 156.072 84.1786C154.529 85.6262 152.334 86.35 149.486 86.35H143.969V92.0099C143.969 93.054 143.696 93.8728 143.15 94.466C142.604 95.0356 141.785 95.3204 140.694 95.3204ZM143.969 81.3308H148.347C149.581 81.3308 150.53 81.0698 151.195 80.5477C151.859 80.0019 152.191 79.195 152.191 78.1271C152.191 77.0354 151.859 76.2286 151.195 75.7065C150.53 75.1844 149.581 74.9234 148.347 74.9234H143.969V81.3308ZM163.939 95.3204C162.895 95.3204 162.088 95.0475 161.518 94.5016C160.973 93.9558 160.7 93.1608 160.7 92.1167V80.3341C160.7 79.3136 160.961 78.5305 161.483 77.9847C162.029 77.4389 162.8 77.166 163.797 77.166C164.793 77.166 165.553 77.4389 166.075 77.9847C166.597 78.5305 166.858 79.3136 166.858 80.3341V81.7936H166.502C166.739 80.3697 167.344 79.2425 168.317 78.4119C169.314 77.5813 170.548 77.1422 172.019 77.0948C172.708 77.071 173.218 77.249 173.55 77.6287C173.906 77.9847 174.096 78.661 174.12 79.6577C174.12 80.5121 173.942 81.1884 173.586 81.6868C173.23 82.1851 172.553 82.4818 171.557 82.5767L170.738 82.6479C169.48 82.7665 168.567 83.1225 167.997 83.7158C167.427 84.2853 167.143 85.1397 167.143 86.2788V92.1167C167.143 93.1608 166.87 93.9558 166.324 94.5016C165.778 95.0475 164.983 95.3204 163.939 95.3204ZM179.267 95.3204C178.27 95.3204 177.499 95.0237 176.953 94.4305C176.407 93.8372 176.134 92.9828 176.134 91.8675V80.6189C176.134 79.5035 176.407 78.6492 176.953 78.0559C177.499 77.4626 178.27 77.166 179.267 77.166C180.287 77.166 181.07 77.4626 181.616 78.0559C182.186 78.6492 182.47 79.5035 182.47 80.6189V91.8675C182.47 92.9828 182.198 93.8372 181.652 94.4305C181.106 95.0237 180.311 95.3204 179.267 95.3204ZM179.267 74.6386C178.151 74.6386 177.285 74.3775 176.668 73.8555C176.075 73.3334 175.778 72.574 175.778 71.5773C175.778 70.6043 176.075 69.8567 176.668 69.3347C177.285 68.8126 178.151 68.5515 179.267 68.5515C180.43 68.5515 181.308 68.8126 181.901 69.3347C182.494 69.8567 182.791 70.6043 182.791 71.5773C182.791 72.574 182.494 73.3334 181.901 73.8555C181.308 74.3775 180.43 74.6386 179.267 74.6386ZM193.906 95.3204C193.075 95.3204 192.363 95.1187 191.77 94.7152C191.201 94.2881 190.726 93.6592 190.346 92.8286L185.256 81.1884C184.971 80.4765 184.876 79.812 184.971 79.195C185.066 78.578 185.363 78.0915 185.861 77.7355C186.383 77.3558 187.095 77.166 187.997 77.166C188.756 77.166 189.361 77.344 189.812 77.6999C190.287 78.0322 190.714 78.6966 191.094 79.6933L194.689 88.9485H193.479L197.252 79.6577C197.632 78.6848 198.059 78.0322 198.534 77.6999C199.008 77.344 199.661 77.166 200.491 77.166C201.203 77.166 201.773 77.3558 202.2 77.7355C202.651 78.0915 202.924 78.578 203.019 79.195C203.114 79.812 202.995 80.4765 202.663 81.1884L197.466 92.8642C197.11 93.6948 196.635 94.3118 196.042 94.7152C195.472 95.1187 194.76 95.3204 193.906 95.3204ZM211.179 95.3916C209.826 95.3916 208.627 95.1424 207.583 94.644C206.563 94.1457 205.756 93.4693 205.163 92.615C204.593 91.737 204.308 90.7402 204.308 89.6249C204.308 88.3434 204.641 87.3348 205.305 86.5991C205.97 85.8635 207.037 85.3414 208.509 85.0329C209.98 84.7006 211.938 84.5345 214.382 84.5345H216.34V87.5247H214.382C213.457 87.5247 212.685 87.5959 212.068 87.7382C211.475 87.8569 211.036 88.0586 210.751 88.3434C210.467 88.6044 210.324 88.9485 210.324 89.3757C210.324 89.9215 210.514 90.3724 210.894 90.7284C211.297 91.0843 211.867 91.2623 212.602 91.2623C213.196 91.2623 213.718 91.1318 214.169 90.8708C214.643 90.6097 215.023 90.2538 215.308 89.8029C215.593 89.3282 215.735 88.7824 215.735 88.1654V84.0362C215.735 83.1818 215.509 82.5767 215.059 82.2207C214.631 81.8648 213.884 81.6868 212.816 81.6868C212.246 81.6868 211.606 81.758 210.894 81.9004C210.182 82.019 209.387 82.2445 208.509 82.5767C207.868 82.814 207.322 82.8496 206.871 82.6835C206.42 82.5174 206.064 82.2326 205.803 81.8292C205.566 81.4257 205.447 80.9867 205.447 80.5121C205.471 80.0374 205.625 79.5866 205.91 79.1594C206.219 78.7322 206.681 78.4 207.298 78.1627C208.438 77.7355 209.482 77.4507 210.431 77.3084C211.404 77.166 212.294 77.0948 213.101 77.0948C215.047 77.0948 216.649 77.3796 217.906 77.9491C219.188 78.4949 220.137 79.3492 220.754 80.5121C221.395 81.6512 221.715 83.1225 221.715 84.9261V92.1167C221.715 93.1608 221.466 93.9558 220.968 94.5016C220.469 95.0475 219.746 95.3204 218.796 95.3204C217.823 95.3204 217.076 95.0475 216.554 94.5016C216.055 93.9558 215.806 93.1608 215.806 92.1167V91.1911L216.02 91.6895C215.901 92.4489 215.628 93.1015 215.201 93.6473C214.774 94.1931 214.216 94.6203 213.528 94.9288C212.84 95.2373 212.057 95.3916 211.179 95.3916ZM234.507 95.3916C232.727 95.3916 231.256 95.1187 230.093 94.5728C228.954 94.027 228.1 93.2083 227.53 92.1167C226.961 91.0013 226.676 89.613 226.676 87.9518V82.1495H225.466C224.706 82.1495 224.113 81.9478 223.686 81.5444C223.282 81.141 223.081 80.5595 223.081 79.8001C223.081 79.0407 223.282 78.4712 223.686 78.0915C224.113 77.6881 224.706 77.4863 225.466 77.4863H226.676V75.2793C226.676 74.2352 226.949 73.4402 227.495 72.8943C228.041 72.3485 228.824 72.0756 229.844 72.0756C230.865 72.0756 231.648 72.3485 232.193 72.8943C232.739 73.4402 233.012 74.2352 233.012 75.2793V77.4863H235.931C236.714 77.4863 237.308 77.6881 237.711 78.0915C238.138 78.4712 238.352 79.0407 238.352 79.8001C238.352 80.5595 238.138 81.141 237.711 81.5444C237.308 81.9478 236.714 82.1495 235.931 82.1495H233.012V87.7382C233.012 88.6163 233.214 89.2689 233.617 89.6961C234.045 90.0995 234.709 90.3012 235.611 90.3012C235.943 90.3012 236.263 90.2656 236.572 90.1944C236.88 90.1232 237.165 90.0876 237.426 90.0876C237.806 90.0639 238.114 90.1826 238.352 90.4436C238.589 90.6809 238.708 91.2386 238.708 92.1167C238.708 92.8286 238.601 93.4337 238.387 93.9321C238.174 94.4067 237.794 94.7508 237.248 94.9644C236.916 95.0831 236.465 95.178 235.896 95.2492C235.326 95.3441 234.863 95.3916 234.507 95.3916ZM249.846 95.3916C247.71 95.3916 245.859 95.0237 244.293 94.2881C242.75 93.5287 241.564 92.4608 240.733 91.0843C239.903 89.7079 239.487 88.0823 239.487 86.2076C239.487 84.404 239.879 82.8259 240.662 81.4732C241.469 80.0968 242.56 79.0289 243.937 78.2695C245.337 77.4863 246.927 77.0948 248.707 77.0948C250.012 77.0948 251.199 77.3084 252.267 77.7355C253.334 78.139 254.248 78.7441 255.007 79.551C255.767 80.3341 256.336 81.2833 256.716 82.3987C257.12 83.5141 257.321 84.76 257.321 86.1364C257.321 86.611 257.191 86.967 256.93 87.2043C256.669 87.4179 256.253 87.5247 255.684 87.5247H244.791V84.5345H252.694L252.124 84.9973C252.124 84.1192 252.005 83.4073 251.768 82.8615C251.531 82.3156 251.175 81.9004 250.7 81.6156C250.249 81.3308 249.68 81.1884 248.992 81.1884C248.256 81.1884 247.615 81.3664 247.069 81.7224C246.547 82.0546 246.144 82.553 245.859 83.2174C245.574 83.8819 245.432 84.7125 245.432 85.7092V86.0296C245.432 87.7145 245.8 88.9248 246.535 89.6605C247.295 90.3724 248.458 90.7284 250.024 90.7284C250.546 90.7284 251.139 90.669 251.804 90.5504C252.492 90.408 253.145 90.2182 253.762 89.9808C254.379 89.7435 254.913 89.7079 255.363 89.8741C255.814 90.0164 256.158 90.2775 256.396 90.6572C256.657 91.0132 256.799 91.4284 256.823 91.9031C256.847 92.354 256.74 92.8049 256.503 93.2558C256.265 93.6829 255.874 94.0152 255.328 94.2525C254.497 94.6322 253.607 94.9169 252.658 95.1068C251.733 95.2966 250.795 95.3916 249.846 95.3916ZM267.028 95.3916C265.984 95.3916 264.916 95.3085 263.824 95.1424C262.756 95 261.783 94.7271 260.905 94.3237C260.312 94.0863 259.885 93.766 259.624 93.3625C259.387 92.9591 259.268 92.532 259.268 92.0811C259.292 91.6302 259.422 91.2267 259.66 90.8708C259.921 90.4911 260.253 90.23 260.656 90.0876C261.083 89.9215 261.558 89.9334 262.08 90.1232C263.077 90.4792 263.967 90.7402 264.75 90.9064C265.557 91.0487 266.328 91.1199 267.064 91.1199C267.942 91.1199 268.571 91.0013 268.95 90.764C269.33 90.5029 269.52 90.1707 269.52 89.7673C269.52 89.4113 269.389 89.1384 269.128 88.9485C268.891 88.7587 268.547 88.6282 268.096 88.557L264.145 87.9162C262.673 87.6552 261.534 87.1212 260.727 86.3144C259.921 85.4838 259.517 84.404 259.517 83.075C259.517 81.841 259.861 80.785 260.549 79.9069C261.261 79.0051 262.222 78.3169 263.433 77.8423C264.667 77.344 266.079 77.0948 267.669 77.0948C268.737 77.0948 269.71 77.1778 270.588 77.344C271.466 77.4863 272.32 77.7593 273.151 78.1627C273.673 78.3763 274.041 78.6848 274.254 79.0882C274.468 79.4916 274.551 79.9188 274.503 80.3697C274.456 80.7968 274.302 81.2003 274.041 81.58C273.803 81.9359 273.471 82.1851 273.044 82.3275C272.617 82.4462 272.118 82.4106 271.549 82.2207C270.766 81.9122 270.066 81.6868 269.449 81.5444C268.855 81.402 268.298 81.3308 267.776 81.3308C266.803 81.3308 266.114 81.4613 265.711 81.7224C265.308 81.9834 265.106 82.3156 265.106 82.7191C265.106 83.0276 265.213 83.2886 265.426 83.5022C265.64 83.6921 265.972 83.8226 266.423 83.8938L270.374 84.5701C271.893 84.8074 273.056 85.3295 273.863 86.1364C274.693 86.9195 275.109 87.9874 275.109 89.3401C275.109 91.2623 274.373 92.7574 272.902 93.8253C271.43 94.8695 269.472 95.3916 267.028 95.3916Z" fill="#E20F87"/>
<defs>
<clipPath id="clip0_36_29446">
<rect width="129" height="70" fill="white" transform="translate(-5 51)"/>
</clipPath>
<clipPath id="clip1_36_29446">
<rect width="61.33" height="46.46" fill="white" transform="translate(107)"/>
</clipPath>
</defs>
</svg>
